<svg width="149" height="39" viewBox="0 0 149 39" fill="none" xmlns="http://www.w3.org/2000/svg">
<path d="M12.064 19.592C12.064 19.1013 11.7653 18.8347 11.168 18.792H8.896C8.72533 18.792 8.64 18.7387 8.64 18.632C8.768 18.0133 8.992 17.5227 9.312 17.16C9.632 16.776 9.89867 16.5627 10.112 16.52C10.7093 16.4347 11.6907 16.392 13.056 16.392C14.4213 16.392 15.2747 16.4027 15.616 16.424C15.9573 16.424 16.1707 16.456 16.256 16.52C16.3413 16.6267 16.384 16.7547 16.384 16.904C16.384 17.032 16.3413 17.9173 16.256 19.56C16.192 21.1813 16.16 22.6427 16.16 23.944C16.16 25.224 16.2027 26.0347 16.288 26.376C16.3733 26.696 16.416 26.8987 16.416 26.984C16.416 27.3253 16.1173 27.6987 15.52 28.104C14.9227 28.488 14.016 28.8293 12.8 29.128C11.6053 29.4267 10.2827 29.576 8.832 29.576C6.89067 29.576 5.20533 28.904 3.776 27.56C2.66667 26.4933 1.89867 25.3307 1.472 24.072C1.06667 22.8133 0.864 21.0427 0.864 18.76C0.864 10.2907 3.968 6.056 10.176 6.056C11.2213 6.056 12.16 6.17333 12.992 6.408C13.824 6.62133 14.5493 7.05867 15.168 7.72C15.808 8.36 16.128 9.192 16.128 10.216C16.128 10.7493 16.0213 11.2933 15.808 11.848C15.424 12.9787 14.5707 13.544 13.248 13.544C12.5227 13.544 11.968 13.3627 11.584 13C11.2213 12.616 11.04 12.0933 11.04 11.432C11.04 11.176 11.1787 11.016 11.456 10.952C11.8613 10.7173 12.064 10.3227 12.064 9.768C12.064 9.192 11.8507 8.75467 11.424 8.456C10.9973 8.136 10.5493 7.976 10.08 7.976C9.056 7.976 8.192 8.34933 7.488 9.096C6.784 9.82133 6.272 10.7813 5.952 11.976C5.41867 14.1093 5.152 16.2853 5.152 18.504C5.152 22.1307 6.03733 24.5413 7.808 25.736C8.46933 26.2053 9.16267 26.44 9.888 26.44C11.232 26.44 11.9467 26.1947 12.032 25.704C12.096 25.0427 12.128 24.0187 12.128 22.632L12.064 19.592ZM21.2835 16.936C20.7288 16.9573 20.3235 16.9787 20.0675 17C19.8328 17 19.7155 16.936 19.7155 16.808C19.7155 16.68 19.7795 16.552 19.9075 16.424C21.2728 15.1653 23.5768 14.536 26.8195 14.536C27.9288 14.536 28.8035 14.632 29.4435 14.824L29.7635 14.92C30.0195 15.0267 30.1475 15.144 30.1475 15.272C30.1475 15.3787 30.0728 15.464 29.9235 15.528C29.3475 15.6987 28.7928 15.976 28.2595 16.36C27.7262 16.7227 27.4595 16.9787 27.4595 17.128L27.6515 17.352C28.3342 17.736 28.8568 18.344 29.2195 19.176C29.6035 20.008 29.8168 20.744 29.8595 21.384L29.9235 22.376C29.9235 24.488 29.3368 26.2267 28.1635 27.592C26.9902 28.9573 25.3902 29.64 23.3635 29.64C22.3395 29.64 21.4542 29.4587 20.7075 29.096C19.9608 28.7333 19.4062 28.328 19.0435 27.88C18.7022 27.4107 18.4248 26.888 18.2115 26.312C17.9555 25.5227 17.8275 24.712 17.8275 23.88C17.8275 23.0267 17.9662 22.1733 18.2435 21.32C18.5422 20.4667 18.8728 19.8373 19.2355 19.432C19.6195 19.0267 20.0462 18.696 20.5155 18.44C21.1128 18.12 21.5928 17.96 21.9555 17.96C22.3182 17.96 22.4995 18.0347 22.4995 18.184L22.3075 18.504C21.8382 19.0587 21.4968 19.784 21.2835 20.68C21.0915 21.576 20.9955 22.376 20.9955 23.08C20.9955 23.7627 21.0808 24.4453 21.2515 25.128C21.4222 25.8107 21.6142 26.3227 21.8275 26.664C22.0408 26.984 22.2862 27.2293 22.5635 27.4C22.9688 27.656 23.3955 27.784 23.8435 27.784C24.2915 27.784 24.7288 27.6133 25.1555 27.272C25.5822 26.9093 25.8915 26.44 26.0835 25.864C26.4675 24.7973 26.6595 23.6987 26.6595 22.568C26.6595 20.776 26.2008 19.3893 25.2835 18.408C24.3875 17.4267 23.0542 16.936 21.2835 16.936ZM45.879 29.32L40.791 29.032C39.575 29.032 38.583 29.2027 37.815 29.544C37.6657 29.608 37.5377 29.64 37.431 29.64C37.1537 29.64 37.015 29.288 37.015 28.584C37.015 27.8587 37.2177 27.0053 37.623 26.024C38.0283 25.0213 38.519 24.0933 39.095 23.24C40.311 21.384 41.367 19.976 42.263 19.016L42.871 18.376C44.0443 17.1173 44.983 15.88 45.687 14.664C46.4123 13.448 46.775 12.1253 46.775 10.696C46.775 9.352 46.2523 8.49867 45.207 8.136C44.9723 8.05067 44.6417 8.008 44.215 8.008C43.7883 7.98667 43.383 8.06133 42.999 8.232C42.615 8.40267 42.327 8.616 42.135 8.872C41.7723 9.40533 41.5803 9.896 41.559 10.344C41.5163 11.112 41.687 11.624 42.071 11.88L42.231 12.008C42.679 12.2 42.903 12.488 42.903 12.872V12.904C42.903 13.48 42.7323 13.9387 42.391 14.28C42.0497 14.6 41.7083 14.7813 41.367 14.824L40.823 14.888C40.183 14.888 39.639 14.7707 39.191 14.536C38.7643 14.3013 38.4657 14.0027 38.295 13.64C37.975 13 37.815 12.36 37.815 11.72C37.815 9.90667 38.4977 8.488 39.863 7.464C41.2497 6.44 42.8283 5.928 44.599 5.928C46.3697 5.928 47.863 6.38667 49.079 7.304C50.295 8.22133 50.903 9.50133 50.903 11.144C50.903 13.3627 49.9537 15.3147 48.055 17L47.415 17.544C44.5563 19.976 42.679 21.96 41.783 23.496C41.463 24.0293 41.303 24.4773 41.303 24.84C41.303 25.0747 41.5057 25.224 41.911 25.288C42.3377 25.3307 43.1483 25.352 44.343 25.352C47.351 25.352 49.303 24.8613 50.199 23.88C50.3057 23.816 50.4123 23.784 50.519 23.784C50.775 23.784 50.903 24.1467 50.903 24.872C50.903 25.5973 50.7537 26.376 50.455 27.208C50.1563 28.0187 49.719 28.5947 49.143 28.936C48.7377 29.192 47.6497 29.32 45.879 29.32ZM59.2593 16.552L59.0993 10.504C59.0993 9.544 58.9926 8.78667 58.7793 8.232C58.5659 7.67733 58.4593 7.37867 58.4593 7.336C58.4593 6.86666 59.1739 6.504 60.6033 6.248C62.0539 5.992 63.1526 5.864 63.8993 5.864C64.6673 5.864 65.0833 6.04533 65.1473 6.408C66.4913 12.4027 67.6219 16.5627 68.5393 18.888C68.6459 19.144 68.7526 19.272 68.8593 19.272C68.9873 19.272 69.0939 19.176 69.1793 18.984C70.6086 14.952 71.8673 10.9627 72.9553 7.016C73.0406 6.76 73.2539 6.568 73.5953 6.44C73.9366 6.29067 74.5233 6.152 75.3553 6.024C76.2086 5.896 77.0513 5.832 77.8833 5.832C78.7153 5.832 79.1313 6.00267 79.1313 6.344C79.1313 6.36533 79.0993 6.536 79.0353 6.856C78.9713 7.15467 78.9073 7.528 78.8433 7.976C78.7793 8.424 78.7046 8.968 78.6193 9.608C78.4273 11.08 78.2993 12.776 78.2353 14.696C78.1926 16.5947 78.1713 18.504 78.1713 20.424L78.2353 23.784C78.2353 25.32 78.3313 26.4187 78.5233 27.08C78.7366 27.72 78.8433 28.0933 78.8433 28.2C78.8433 28.2853 78.7686 28.392 78.6193 28.52C77.9579 29.0533 76.9553 29.32 75.6112 29.32C74.7579 29.32 74.2779 29.032 74.1713 28.456C74.1073 28.1573 74.0753 27.688 74.0753 27.048C74.0753 26.3867 74.1393 24.3813 74.2673 21.032C74.3953 17.6827 74.4593 15.2507 74.4593 13.736C74.4593 12.2 74.3739 11.432 74.2033 11.432C74.1819 11.432 74.1713 11.4427 74.1713 11.464C74.1713 11.464 74.1393 11.4747 74.0753 11.496C74.0113 11.5173 73.8406 11.848 73.5633 12.488C73.3073 13.128 72.7846 14.7067 71.9953 17.224C71.2059 19.7413 70.4913 22.0987 69.8513 24.296C69.2113 26.472 68.8593 27.6453 68.7953 27.816C68.5606 28.392 68.1126 28.68 67.4513 28.68C67.1313 28.68 66.8753 28.5627 66.6833 28.328C66.0006 25.1707 64.7846 20.6587 63.0353 14.792L62.1393 11.88C62.0966 11.7733 62.0539 11.72 62.0113 11.72C61.9046 11.72 61.8299 11.7947 61.7873 11.944C61.7019 13.3307 61.6593 16.0613 61.6593 20.136C61.6593 24.1893 61.8086 26.7493 62.1073 27.816C62.1286 27.8587 62.1393 27.9227 62.1393 28.008C62.1393 28.456 61.7873 28.7867 61.0833 29C60.3793 29.192 59.7393 29.288 59.1633 29.288C58.6086 29.288 58.3313 29.16 58.3313 28.904C58.3313 28.8827 58.3846 28.712 58.4913 28.392C58.8113 27.304 59.0139 25.7253 59.0993 23.656C59.2059 21.5867 59.2593 19.2187 59.2593 16.552ZM92.0693 14.76C91.6853 17.064 91.4933 19.9973 91.4933 23.56C91.4933 26.184 91.5999 27.912 91.8133 28.744L91.9413 29.16C91.9413 29.4373 91.7066 29.576 91.2373 29.576C89.5946 29.576 88.6559 29.1173 88.4213 28.2C88.3999 28.0933 88.3466 28.04 88.2613 28.04C88.1973 28.04 88.1333 28.0827 88.0693 28.168C87.4079 29.0427 86.3839 29.48 84.9973 29.48C84.2293 29.48 83.4293 29.288 82.5973 28.904C82.0853 28.6693 81.6693 28.264 81.3493 27.688C81.0293 27.0907 80.8693 26.3653 80.8693 25.512L81.3493 18.504C81.3493 17.032 81.1999 15.9867 80.9013 15.368C80.7946 15.1333 80.7413 14.984 80.7413 14.92C80.7413 14.792 80.7946 14.7067 80.9013 14.664C81.2426 14.5573 81.6799 14.504 82.2133 14.504C84.2826 14.504 85.3173 15.3573 85.3173 17.064C85.3173 17.5973 85.0933 18.8133 84.6453 20.712C84.2186 22.6107 84.0052 23.9653 84.0052 24.776C84.0052 25.5653 84.1759 26.1733 84.5173 26.6C84.8799 27.0267 85.3706 27.24 85.9893 27.24C86.6293 27.24 87.1306 27.016 87.4933 26.568C87.8559 26.12 88.0693 25.672 88.1333 25.224L88.2292 24.552C88.3146 23.8053 88.3573 22.4933 88.3573 20.616C88.3573 18.7387 88.2933 17.5547 88.1653 17.064C88.0586 16.552 88.0052 16.232 88.0052 16.104C88.0052 15.5707 88.4319 15.1547 89.2853 14.856C90.1386 14.536 90.9066 14.376 91.5893 14.376C91.9093 14.376 92.0693 14.504 92.0693 14.76ZM103.344 24.616C103.344 25.5333 103.163 26.3333 102.8 27.016C102.459 27.6987 102.064 28.2 101.616 28.52C101.168 28.84 100.635 29.096 100.016 29.288C99.2056 29.544 98.4696 29.672 97.8083 29.672C96.4216 29.672 95.2696 29.4053 94.3523 28.872C93.4349 28.3173 92.9763 27.4427 92.9763 26.248C92.9763 25.544 93.1683 24.968 93.5523 24.52C94.1496 23.8587 94.8643 23.528 95.6963 23.528C95.9523 23.528 96.0803 23.6453 96.0803 23.88C96.0803 23.9013 96.0269 24.072 95.9203 24.392C95.8349 24.6907 95.7923 25.0747 95.7923 25.544C95.7923 26.0133 95.9736 26.4293 96.3363 26.792C96.7203 27.1547 97.1789 27.336 97.7123 27.336C98.2456 27.336 98.6723 27.2507 98.9923 27.08C99.3123 26.888 99.5363 26.6533 99.6643 26.376C99.8563 25.992 99.9523 25.6293 99.9523 25.288C99.9523 24.6693 99.6429 24.136 99.0243 23.688C98.4056 23.24 97.7229 22.888 96.9763 22.632C96.2296 22.376 95.5469 21.9493 94.9283 21.352C94.3096 20.7547 94.0003 20.008 94.0003 19.112C94.0003 17.576 94.4803 16.424 95.4403 15.656C96.4216 14.888 97.7443 14.504 99.4083 14.504C100.134 14.504 100.891 14.6107 101.68 14.824C102.491 15.016 102.896 15.3573 102.896 15.848C102.896 16.3173 102.811 16.7547 102.64 17.16C102.491 17.5653 102.299 17.768 102.064 17.768C101.936 17.768 101.851 17.7253 101.808 17.64C101.766 17.5333 101.691 17.416 101.584 17.288C101.478 17.16 101.222 17 100.816 16.808C100.411 16.5947 100.059 16.488 99.7603 16.488C99.4829 16.488 99.2909 16.4987 99.1843 16.52C99.0989 16.52 98.9389 16.552 98.7043 16.616C98.4696 16.6587 98.2563 16.7333 98.0643 16.84C97.5736 17.1173 97.3283 17.5227 97.3283 18.056C97.3283 18.3973 97.4029 18.6533 97.5523 18.824C97.7016 18.9733 97.8189 19.0907 97.9043 19.176C97.9896 19.2613 98.1389 19.368 98.3523 19.496C98.5656 19.6027 98.7149 19.6773 98.8003 19.72C98.8856 19.7627 99.0776 19.8587 99.3763 20.008C99.6749 20.136 99.8669 20.2213 99.9523 20.264C102.214 21.3307 103.344 22.7813 103.344 24.616ZM107.656 20.872L107.688 21.672C107.688 21.8 107.774 21.864 107.944 21.864C108.627 21.8 109.224 21.6293 109.736 21.352C110.248 21.0533 110.632 20.7227 110.888 20.36C111.4 19.5707 111.678 18.888 111.72 18.312L111.752 17.928C111.752 16.776 111.294 16.2 110.376 16.2C109.694 16.2 109.139 16.4987 108.712 17.096C108.008 18.0347 107.656 19.2933 107.656 20.872ZM114.632 25.128C114.632 25.9387 114.462 26.6533 114.12 27.272C113.8 27.8693 113.427 28.3173 113 28.616C112.595 28.8933 112.115 29.1173 111.56 29.288C110.856 29.5013 110.184 29.608 109.544 29.608C107.752 29.608 106.43 28.936 105.576 27.592C104.723 26.248 104.296 24.5413 104.296 22.472C104.296 20.3813 104.819 18.5253 105.864 16.904C106.931 15.2827 108.52 14.472 110.632 14.472C112.552 14.472 113.854 15.144 114.536 16.488C114.814 17 114.952 17.4907 114.952 17.96C114.952 18.408 114.931 18.7707 114.888 19.048C114.846 19.304 114.696 19.6987 114.44 20.232C114.184 20.7653 113.843 21.2453 113.416 21.672C112.99 22.0987 112.318 22.504 111.4 22.888C110.483 23.272 109.406 23.528 108.168 23.656C107.998 23.656 107.912 23.7307 107.912 23.88C107.912 24.072 107.976 24.36 108.104 24.744C108.254 25.1067 108.414 25.416 108.584 25.672C109.054 26.2693 109.747 26.568 110.664 26.568C111.582 26.568 112.36 26.2693 113 25.672C113.342 25.352 113.619 24.9573 113.832 24.488C113.918 24.3173 114.024 24.232 114.152 24.232C114.302 24.232 114.419 24.3493 114.504 24.584C114.59 24.8187 114.632 25 114.632 25.128ZM127.726 14.76C127.342 17.064 127.15 19.9973 127.15 23.56C127.15 26.184 127.256 27.912 127.47 28.744L127.598 29.16C127.598 29.4373 127.363 29.576 126.894 29.576C125.251 29.576 124.312 29.1173 124.078 28.2C124.056 28.0933 124.003 28.04 123.918 28.04C123.854 28.04 123.79 28.0827 123.726 28.168C123.064 29.0427 122.04 29.48 120.654 29.48C119.886 29.48 119.086 29.288 118.254 28.904C117.742 28.6693 117.326 28.264 117.006 27.688C116.686 27.0907 116.526 26.3653 116.526 25.512L117.006 18.504C117.006 17.032 116.856 15.9867 116.558 15.368C116.451 15.1333 116.398 14.984 116.398 14.92C116.398 14.792 116.451 14.7067 116.558 14.664C116.899 14.5573 117.336 14.504 117.87 14.504C119.939 14.504 120.974 15.3573 120.974 17.064C120.974 17.5973 120.75 18.8133 120.302 20.712C119.875 22.6107 119.661 23.9653 119.661 24.776C119.661 25.5653 119.832 26.1733 120.174 26.6C120.536 27.0267 121.027 27.24 121.646 27.24C122.286 27.24 122.787 27.016 123.15 26.568C123.512 26.12 123.726 25.672 123.79 25.224L123.885 24.552C123.971 23.8053 124.014 22.4933 124.014 20.616C124.014 18.7387 123.95 17.5547 123.822 17.064C123.715 16.552 123.661 16.232 123.661 16.104C123.661 15.5707 124.088 15.1547 124.942 14.856C125.795 14.536 126.563 14.376 127.246 14.376C127.566 14.376 127.726 14.504 127.726 14.76ZM136.505 29.192C136.803 27.6987 136.953 25.608 136.953 22.92C136.953 20.2107 136.942 18.6107 136.921 18.12C136.899 17.6293 136.75 17.2347 136.473 16.936C136.195 16.6373 135.95 16.4667 135.737 16.424C135.545 16.3813 135.267 16.36 134.905 16.36C134.542 16.36 134.19 16.5307 133.849 16.872C133.507 17.192 133.305 17.5227 133.241 17.864L133.113 18.376C133.049 19.016 133.016 20.4347 133.016 22.632C133.016 24.8293 133.059 26.216 133.145 26.792C133.251 27.3467 133.305 27.72 133.305 27.912C133.305 28.104 133.219 28.296 133.049 28.488C132.323 29.256 131.299 29.64 129.977 29.64C129.507 29.64 129.273 29.5013 129.273 29.224C129.699 26.664 129.913 23.4 129.913 19.432C129.913 17.96 129.881 16.968 129.817 16.456L129.689 15.432C129.667 15.1973 129.625 14.9413 129.561 14.664C129.561 14.408 129.891 14.28 130.553 14.28C131.534 14.28 132.185 14.6427 132.505 15.368C132.526 15.4533 132.569 15.496 132.633 15.496C132.697 15.496 132.846 15.4107 133.081 15.24C133.785 14.6853 134.734 14.408 135.929 14.408C136.611 14.408 137.283 14.536 137.945 14.792C138.606 15.048 139.065 15.3893 139.321 15.816C139.342 15.8587 139.374 15.88 139.417 15.88C139.459 15.88 139.523 15.8373 139.609 15.752C140.505 14.856 141.667 14.408 143.097 14.408C144.995 14.408 146.297 15.0907 147.001 16.456C147.257 16.9893 147.385 17.6613 147.385 18.472C147.385 19.2827 147.321 20.4347 147.193 21.928C147.065 23.4213 147.001 24.5627 147.001 25.352C147.001 26.1413 147.075 26.856 147.225 27.496C147.395 28.136 147.555 28.5947 147.705 28.872C147.875 29.1493 147.961 29.3093 147.961 29.352C147.961 29.6293 147.662 29.768 147.065 29.768C145.593 29.768 144.569 29.4693 143.993 28.872C143.417 28.2747 143.129 27.496 143.129 26.536C143.129 25.5547 143.321 24.2427 143.705 22.6C144.11 20.936 144.312 19.688 144.312 18.856C144.312 17.1707 143.63 16.328 142.265 16.328C141.689 16.328 141.23 16.4987 140.889 16.84C140.547 17.1813 140.345 17.5227 140.281 17.864L140.217 18.376C140.131 19.3573 140.089 20.5413 140.089 21.928C140.089 23.3147 140.11 24.4027 140.153 25.192C140.195 25.96 140.238 26.568 140.281 27.016C140.323 27.4427 140.345 27.6987 140.345 27.784C140.345 28.3813 139.971 28.84 139.225 29.16C138.478 29.48 137.753 29.64 137.049 29.64C136.686 29.64 136.505 29.4907 136.505 29.192Z" fill="#0CA296"/>
</svg>
